# xmcd
#
# Track frame offsets:
# 187
# 15582
# 32845
# 52642
# 70850
# 89422
# 101175
# 116025
# 138930
# 158155
# 169610
# 181540
# 193822
# 207620
#
# Disc length: 2977 seconds
#
# Revision: 0
# Processed by: cddbd v1.5.1PL2 Copyright (c) Steve Scherf et al.
# Submitted via: CoinsHifi v1.6 contact@coinshifi.com
#
DISCID=b90b9f0e
DTITLE=Celtique - Celtic Odyssey
DYEAR=1993
DGENRE=Celtic
TTITLE0=Celtique/Northern Lights - Carolan's Ramble to Cashel
TTITLE1=Celtique/Orison - The Butterfly
TTITLE2=Celtique/Altan - Donas Agus Morag
TTITLE3=Celtique/Alashdair Fraser - Calliope House
TTITLE4=Celtique/Scartaglen - Chaigh Me 'Na Rosann
TTITLE5=Celtique/John Whelan - Trip to Skye
TTITLE6=Celtique/Alashdair Fraser - Are Ye Sleeping, Maggie?
TTITLE7=Celtique/Moving Hearts - Tribute to Peadar O'Donnell
TTITLE8=Celtique/Relativity - Siun Ni Dhuibbir
TTITLE9=Celtique/Capercaillie - Alasdair Mhic Cholla Ghasda
TTITLE10=Celtique/Sileas - Puirt a Beul
TTITLE11=Celtique/Gerald Trimble - Tha York Reel
TTITLE12=Celtique/Laurie Riley and Bob McNally - Morghan Meaghan
TTITLE13=Celtique/Simon Wynberg - Strathgarry
EXTD=
EXTT0=
EXTT1=
EXTT2=
EXTT3=
EXTT4=
EXTT5=
EXTT6=
EXTT7=
EXTT8=
EXTT9=
EXTT10=
EXTT11=
EXTT12=
EXTT13=
PLAYORDER=
